<svg width="32" height="30" viewBox="0 0 32 30" fill="none" xmlns="http://www.w3.org/2000/svg">
<path d="M31.1075 26.2513H3.46463V1.17983C3.46463 1.00304 3.31999 0.858398 3.14321 0.858398H0.893206C0.71642 0.858398 0.571777 1.00304 0.571777 1.17983V28.8227C0.571777 28.9995 0.71642 29.1441 0.893206 29.1441H31.1075C31.2843 29.1441 31.4289 28.9995 31.4289 28.8227V26.5727C31.4289 26.3959 31.2843 26.2513 31.1075 26.2513ZM6.35749 23.6798H27.8932C28.07 23.6798 28.2146 23.5352 28.2146 23.3584V5.84054C28.2146 5.55126 27.8651 5.41063 27.6642 5.61152L19.2146 14.0611L14.1762 9.07893C14.1158 9.01912 14.0343 8.98556 13.9492 8.98556C13.8642 8.98556 13.7826 9.01912 13.7222 9.07893L6.12847 16.6968C6.09898 16.7263 6.07563 16.7614 6.05977 16.8001C6.04391 16.8387 6.03585 16.88 6.03606 16.9218V23.3584C6.03606 23.5352 6.18071 23.6798 6.35749 23.6798Z" fill="black" fillOpacity="0.85"/>
</svg>
