<svg width="32" height="30" viewBox="0 0 32 30" fill="none" xmlns="http://www.w3.org/2000/svg">
<path d="M31.1065 26.2513H3.46366V1.17983C3.46366 1.00304 3.31902 0.858398 3.14223 0.858398H0.892229C0.715444 0.858398 0.570801 1.00304 0.570801 1.17983V28.8227C0.570801 28.9995 0.715444 29.1441 0.892229 29.1441H31.1065C31.2833 29.1441 31.4279 28.9995 31.4279 28.8227V26.5727C31.4279 26.3959 31.2833 26.2513 31.1065 26.2513ZM6.99937 23.037H9.24937C9.42616 23.037 9.5708 22.8923 9.5708 22.7155V16.9298C9.5708 16.753 9.42616 16.6084 9.24937 16.6084H6.99937C6.82259 16.6084 6.67794 16.753 6.67794 16.9298V22.7155C6.67794 22.8923 6.82259 23.037 6.99937 23.037ZM13.1065 23.037H15.3565C15.5333 23.037 15.6779 22.8923 15.6779 22.7155V9.8584C15.6779 9.68161 15.5333 9.53697 15.3565 9.53697H13.1065C12.9297 9.53697 12.7851 9.68161 12.7851 9.8584V22.7155C12.7851 22.8923 12.9297 23.037 13.1065 23.037ZM19.2137 23.037H21.4637C21.6404 23.037 21.7851 22.8923 21.7851 22.7155V12.9923C21.7851 12.8155 21.6404 12.6709 21.4637 12.6709H19.2137C19.0369 12.6709 18.8922 12.8155 18.8922 12.9923V22.7155C18.8922 22.8923 19.0369 23.037 19.2137 23.037ZM25.3208 23.037H27.5708C27.7476 23.037 27.8922 22.8923 27.8922 22.7155V6.64411C27.8922 6.46733 27.7476 6.32268 27.5708 6.32268H25.3208C25.144 6.32268 24.9994 6.46733 24.9994 6.64411V22.7155C24.9994 22.8923 25.144 23.037 25.3208 23.037Z" fill="black" fillOpacity="0.85"/>
</svg>
