<svg xmlns="http://www.w3.org/2000/svg" width="24.062" height="24" viewBox="0 0 24.062 24">
  <g id="noun-course-2036002" transform="translate(-69.854)">
    <path id="Path_122" data-name="Path 122" d="M559.252,249.788q1.406-.111,2.7-.113v.75q-1.267,0-2.642.109a.376.376,0,0,1-.058-.75Z" transform="translate(-488.996 -238.975)" fill="#131b3b"/>
    <path id="Path_123" data-name="Path 123" d="M70.189,53.06c8.144-.774,13.034-.068,14.534,2.1a2.4,2.4,0,0,1,.414,1.776,32.682,32.682,0,0,1,8.465.313.381.381,0,0,1-.135.75c-.131-.024-13.051-2.306-14.99,3.7a20.82,20.82,0,0,1,10.745,5.371,17.782,17.782,0,0,1,4.609,6.942.375.375,0,0,1-.718.219,17.366,17.366,0,0,0-4.444-6.646c-2.531-2.407-6.7-5.089-13.461-5.561v-.75c.883.06,1.725.158,2.525.287.842-2.8,3.615-4.035,6.615-4.517a1.67,1.67,0,0,0-.24-1.459c-.75-1.084-3.542-2.754-13.842-1.777h0a.377.377,0,0,1-.071-.75Z" transform="translate(0 -50.495)" fill="#131b3b"/>
    <path id="Path_124" data-name="Path 124" d="M448.486,99.673a.375.375,0,0,1,.639.264v10.711a3.9,3.9,0,0,1,1.3-.2c1.012,0,2.1.332,2.1,1.063s-1.089,1.063-2.1,1.063-2.094-.334-2.094-1.063a.677.677,0,0,1,.054-.266v-7l-3.437-.131a.375.375,0,0,1-.251-.639Zm1.937,12.147a2.265,2.265,0,0,0,1.331-.313,2.241,2.241,0,0,0-1.331-.313,2.369,2.369,0,0,0-1.3.289h0a.393.393,0,0,1,0,.045A2.317,2.317,0,0,0,450.423,111.82Zm-2.047-8.33v-2.647l-2.55,2.55Z" transform="translate(-374.667 -95.297)" fill="#131b3b"/>
    <path id="Path_125" data-name="Path 125" d="M112.755,1.687a1.687,1.687,0,1,1-.494-1.193A1.688,1.688,0,0,1,112.755,1.687Zm-2.625,0a.937.937,0,1,0,.275-.663A.938.938,0,0,0,110.13,1.687Z" transform="translate(-20.532 0)" fill="#131b3b"/>
    <path id="Path_126" data-name="Path 126" d="M333.6,393.872a1.221,1.221,0,1,1,.358.861,1.219,1.219,0,0,1-.358-.861Zm1.687,0a.469.469,0,1,0-.469.469.469.469,0,0,0,.469-.469Z" transform="translate(-253.419 -375.826)" fill="#131b3b"/>
  </g>
</svg>
