<svg xmlns="http://www.w3.org/2000/svg" width="40" height="20" viewBox="0 0 40 20">
  <g id="noun-followers-1527507" transform="translate(-70.002 -166.25)">
    <path id="Path_149" data-name="Path 149" d="M82.777,286.666a5.652,5.652,0,0,1-1.486.922,6.448,6.448,0,0,1,3.517,1.74c1.488,1.519,2.211,4.034,2.147,7.475a.091.091,0,0,1-.051.017H71.323a.094.094,0,0,1-.056-.02c-.092-3.558.576-6.019,2.04-7.524a6.3,6.3,0,0,1,3.56-1.716,5.654,5.654,0,0,1-1.478-.942c-4.827,1.514-5.48,6.385-5.376,10.25a1.293,1.293,0,0,0,1.311,1.207H86.9a1.287,1.287,0,0,0,1.307-1.207c.077-3.825-.7-8.634-5.433-10.2Z" transform="translate(0 -111.826)"/>
    <path id="Path_150" data-name="Path 150" d="M140.026,175.043a4.4,4.4,0,1,0-4.4-4.4A4.4,4.4,0,0,0,140.026,175.043Zm0-7.537a3.14,3.14,0,1,1-3.14,3.14A3.144,3.144,0,0,1,140.026,167.506Z" transform="translate(-60.917)"/>
    <path id="Path_151" data-name="Path 151" d="M327.522,217.537a3.768,3.768,0,1,0-3.768-3.769A3.769,3.769,0,0,0,327.522,217.537Zm0-6.281a2.512,2.512,0,1,1-2.512,2.512A2.515,2.515,0,0,1,327.522,211.256Z" transform="translate(-235.647 -40.634)"/>
    <path id="Path_152" data-name="Path 152" d="M497.51,251.281a3.14,3.14,0,1,0-3.14-3.14A3.14,3.14,0,0,0,497.51,251.281Zm0-5.025a1.884,1.884,0,1,1-1.884,1.884A1.886,1.886,0,0,1,497.51,246.256Z" transform="translate(-394.103 -73.138)"/>
    <path id="Path_153" data-name="Path 153" d="M501.31,331.64a4.4,4.4,0,0,1-1.262.894,4.1,4.1,0,0,1,1.978,1.085c.987,1.007,1.487,2.685,1.49,4.991h-8.168c0,.088,0,.175,0,.264a2.228,2.228,0,0,1-.258.992h8.733a.939.939,0,0,0,.947-.889c.053-2.683-.451-6.025-3.458-7.337Z" transform="translate(-394.769 -153.617)"/>
    <path id="Path_154" data-name="Path 154" d="M479.972,331.07a5.066,5.066,0,0,0-1.081.616,8.5,8.5,0,0,1,.569,1.156,4.08,4.08,0,0,1,1.759-.862A4.4,4.4,0,0,1,479.972,331.07Z" transform="translate(-379.691 -153.053)"/>
    <path id="Path_155" data-name="Path 155" d="M317.293,313.5a6.1,6.1,0,0,0-.863.408,9.421,9.421,0,0,1,.6,1.106,5.417,5.417,0,0,1,1.625-.6A5.037,5.037,0,0,1,317.293,313.5Z" transform="translate(-228.831 -136.737)"/>
    <path id="Path_156" data-name="Path 156" d="M342.667,314.14a5.031,5.031,0,0,1-1.357.889,4.917,4.917,0,0,1,2.5,1.328c1.187,1.211,1.777,3.232,1.753,6.009h-8.8c0,.025,0,.049,0,.074a2.4,2.4,0,0,1-.341,1.182h9.31a1.073,1.073,0,0,0,1.082-1.017c.061-3.125-.539-7.03-4.153-8.466Z" transform="translate(-247.429 -137.373)"/>
  </g>
</svg>
