<svg width="30" height="30" viewBox="0 0 30 30" fill="none" xmlns="http://www.w3.org/2000/svg">
<circle cx="15" cy="15" r="15" fill="#0396FF"/>
<path d="M24 17.4074V18.1482C23.9984 19.4015 23.5435 20.6119 22.7191 21.556C21.8947 22.5 20.7565 23.1139 19.5148 23.2843C20.0217 23.9328 20.2968 24.7324 20.2963 25.5556V29.2593C20.2963 29.4557 20.2183 29.6441 20.0793 29.7831C19.9404 29.922 19.752 30 19.5556 30H13.6296C13.4332 30 13.2448 29.922 13.1058 29.7831C12.9669 29.6441 12.8889 29.4557 12.8889 29.2593V27.7778H10.6667C9.68438 27.7778 8.74233 27.3876 8.04775 26.693C7.35317 25.9984 6.96296 25.0564 6.96296 24.0741C6.96296 23.4847 6.72884 22.9195 6.31209 22.5027C5.89534 22.086 5.33011 21.8519 4.74074 21.8519C4.54428 21.8519 4.35587 21.7738 4.21696 21.6349C4.07804 21.496 4 21.3076 4 21.1111C4 20.9147 4.07804 20.7263 4.21696 20.5873C4.35587 20.4484 4.54428 20.3704 4.74074 20.3704C5.22712 20.3704 5.70873 20.4662 6.15809 20.6523C6.60744 20.8384 7.01573 21.1113 7.35965 21.4552C7.70358 21.7991 7.97639 22.2074 8.16252 22.6567C8.34865 23.1061 8.44444 23.5877 8.44444 24.0741C8.44444 24.6635 8.67857 25.2287 9.09532 25.6454C9.51207 26.0622 10.0773 26.2963 10.6667 26.2963H12.8889V25.5556C12.8884 24.7324 13.1635 23.9328 13.6704 23.2843C12.4287 23.1139 11.2905 22.5 10.4661 21.556C9.64173 20.6119 9.18674 19.4015 9.18518 18.1482V17.4074C9.19441 16.4868 9.43956 15.584 9.89722 14.7852C9.67081 14.0548 9.59818 13.2855 9.68392 12.5256C9.76965 11.7658 10.0119 11.0319 10.3954 10.3704C10.4604 10.2578 10.5539 10.1642 10.6666 10.0992C10.7792 10.0342 10.907 9.99998 11.037 10C11.8998 9.99821 12.7511 10.1982 13.5228 10.5841C14.2945 10.9699 14.9653 11.5309 15.4815 12.2222H17.7037C18.2199 11.5309 18.8907 10.9699 19.6624 10.5841C20.4341 10.1982 21.2854 9.99821 22.1481 10C22.2782 9.99998 22.406 10.0342 22.5186 10.0992C22.6313 10.1642 22.7248 10.2578 22.7898 10.3704C23.1733 11.0319 23.4156 11.7658 23.5011 12.5257C23.5867 13.2856 23.5138 14.0549 23.287 14.7852C23.7456 15.5837 23.9911 16.4867 24 17.4074Z" fill="white"/>
</svg>
