<svg width="32" height="30" viewBox="0 0 32 30" fill="none" xmlns="http://www.w3.org/2000/svg">
<path d="M31.1065 26.2513H3.46366V1.17983C3.46366 1.00304 3.31902 0.858398 3.14223 0.858398H0.892229C0.715444 0.858398 0.570801 1.00304 0.570801 1.17983V28.8227C0.570801 28.9995 0.715444 29.1441 0.892229 29.1441H31.1065C31.2833 29.1441 31.4279 28.9995 31.4279 28.8227V26.5727C31.4279 26.3959 31.2833 26.2513 31.1065 26.2513ZM7.71455 20.0517C7.83911 20.1763 8.04 20.1763 8.16857 20.0517L13.7253 14.5231L18.8521 19.6821C18.9766 19.8066 19.1815 19.8066 19.3061 19.6821L30.3713 8.6209C30.4958 8.49635 30.4958 8.29143 30.3713 8.16688L28.7802 6.57581C28.7198 6.51599 28.6382 6.48243 28.5532 6.48243C28.4682 6.48243 28.3866 6.51599 28.3262 6.57581L19.0851 15.8129L13.9663 10.662C13.9059 10.6022 13.8243 10.5686 13.7393 10.5686C13.6543 10.5686 13.5727 10.6022 13.5123 10.662L6.1275 18.0026C6.06768 18.063 6.03412 18.1446 6.03412 18.2296C6.03412 18.3146 6.06768 18.3962 6.1275 18.4566L7.71455 20.0517Z" fill="black" fillOpacity="0.85"/>
</svg>
