<svg width="30" height="30" viewBox="0 0 30 30" fill="none" xmlns="http://www.w3.org/2000/svg">
<circle cx="15" cy="15" r="15" fill="#0396FF"/>
<path d="M9.15243 9.99823C10.1594 9.99823 10.9758 9.18189 10.9758 8.1749C10.9758 7.1679 10.1594 6.35156 9.15243 6.35156C8.14544 6.35156 7.3291 7.1679 7.3291 8.1749C7.3291 9.18189 8.14544 9.99823 9.15243 9.99823Z" fill="white"/>
<path d="M12.6974 11.3828V21.4986H15.8383V16.4961C15.8383 15.1761 16.0866 13.8978 17.7233 13.8978C19.3374 13.8978 19.3574 15.407 19.3574 16.5795V21.4995H22.4999V15.952C22.4999 13.227 21.9133 11.1328 18.7283 11.1328C17.1991 11.1328 16.1741 11.972 15.7549 12.7661H15.7124V11.3828H12.6974ZM7.5791 11.3828H10.7249V21.4986H7.5791V11.3828Z" fill="white"/>
</svg>
