<svg xmlns="http://www.w3.org/2000/svg" width="26" height="30" viewBox="0 0 26 30">
  <g id="Group_414" data-name="Group 414" transform="translate(-471 -2540)">
    <path id="Path_358" data-name="Path 358" d="M5,0H21a5,5,0,0,1,5,5V25a5,5,0,0,1-5,5H5a5,5,0,0,1-5-5V5A5,5,0,0,1,5,0Z" transform="translate(471 2540)" fill="#f96767"/>
    <g id="noun-idea-5131189" transform="translate(401.984 2469.866)">
      <path id="Path_302" data-name="Path 302" d="M345.523,76.965a.2.2,0,0,1-.2-.2V75.337a.2.2,0,0,1,.407,0v1.424A.2.2,0,0,1,345.523,76.965Z" transform="translate(-263.635)" fill="#fff" fillRule="evenodd"/>
      <path id="Path_303" data-name="Path 303" d="M425.128,102.729a.171.171,0,0,1-.1-.03.206.206,0,0,1-.081-.275l.712-1.231a.205.205,0,0,1,.356.2l-.712,1.231A.209.209,0,0,1,425.128,102.729Z" transform="translate(-339.863 -24.859)" fill="#fff" fillRule="evenodd"/>
      <path id="Path_304" data-name="Path 304" d="M483.523,172.782a.2.2,0,0,1-.173-.1.189.189,0,0,1,.071-.275l1.231-.712a.2.2,0,0,1,.275.071.222.222,0,0,1-.071.285l-1.231.7a.2.2,0,0,1-.1.03Z" transform="translate(-395.786 -92.44)" fill="#fff" fillRule="evenodd"/>
      <path id="Path_305" data-name="Path 305" d="M506.324,268.525H504.91a.2.2,0,1,1,0-.407h1.414a.2.2,0,1,1,0,.407Z" transform="translate(-416.266 -184.805)" fill="#fff" fillRule="evenodd"/>
      <path id="Path_306" data-name="Path 306" d="M484.755,348.962a.171.171,0,0,1-.1-.03l-1.231-.712a.19.19,0,0,1-.071-.275.2.2,0,0,1,.275-.071l1.231.7a.222.222,0,0,1,.071.285.225.225,0,0,1-.173.1Z" transform="translate(-395.786 -261.153)" fill="#fff" fillRule="evenodd"/>
      <path id="Path_307" data-name="Path 307" d="M178.367,348.959a.228.228,0,0,1-.183-.1.215.215,0,0,1,.081-.285l1.221-.7a.212.212,0,0,1,.285.071.2.2,0,0,1-.081.275l-1.221.712a.2.2,0,0,1-.1.03Z" transform="translate(-103.561 -261.149)" fill="#fff" fillRule="evenodd"/>
      <path id="Path_308" data-name="Path 308" d="M153.954,268.525H152.54a.2.2,0,1,1,0-.407h1.414a.2.2,0,1,1,0,.407Z" transform="translate(-78.831 -184.805)" fill="#fff" fillRule="evenodd"/>
      <path id="Path_309" data-name="Path 309" d="M179.594,172.779a.226.226,0,0,1-.1-.03l-1.221-.7a.215.215,0,0,1-.081-.285.212.212,0,0,1,.285-.071l1.221.712a.2.2,0,0,1,.081.275.227.227,0,0,1-.183.1Z" transform="translate(-103.566 -92.437)" fill="#fff" fillRule="evenodd"/>
      <path id="Path_310" data-name="Path 310" d="M249.725,102.729a.228.228,0,0,1-.183-.1l-.7-1.231a.191.191,0,0,1,.071-.275.2.2,0,0,1,.275.071l.712,1.231a.212.212,0,0,1-.071.275.227.227,0,0,1-.1.03Z" transform="translate(-171.215 -24.859)" fill="#fff" fillRule="evenodd"/>
      <path id="Path_311" data-name="Path 311" d="M241.8,165.59h-3.1a.2.2,0,0,1-.173-.092l-.834-1.17a.153.153,0,0,1-.041-.112v-1.77a3.768,3.768,0,0,0-1.119-3.133,3.651,3.651,0,0,1-1.139-2.991,4.858,4.858,0,1,1,9.716,0,3.676,3.676,0,0,1-1.139,3,3.675,3.675,0,0,0-1.119,3.083v1.811a.2.2,0,0,1-.03.112l-.855,1.18a.213.213,0,0,1-.163.081Zm-3-.407h2.9l.743-1.038v-1.729a4.087,4.087,0,0,1,1.231-3.378,3.273,3.273,0,0,0,1.027-2.716,4.451,4.451,0,1,0-8.9,0,3.288,3.288,0,0,0,1.027,2.716,4.116,4.116,0,0,1,1.231,3.408v1.7l.743,1.038Z" transform="translate(-158.362 -73.09)" fill="#fff" fillRule="evenodd"/>
      <path id="Path_312" data-name="Path 312" d="M292.515,386.3h-4.792a.2.2,0,0,1-.2-.2.2.2,0,0,1,.2-.2h4.792a.2.2,0,0,1,.2.2A.2.2,0,0,1,292.515,386.3Zm.051-1.363h-4.894a.2.2,0,0,1-.2-.2.2.2,0,0,1,.2-.2h4.894a.2.2,0,0,1,.2.2A.2.2,0,0,1,292.566,384.941Z" transform="translate(-208.236 -296.287)" fill="#fff" fillRule="evenodd"/>
      <path id="Path_313" data-name="Path 313" d="M293.643,418.463h-4.731a.2.2,0,1,1,0-.407h4.731a.2.2,0,1,1,0,.407Zm.03-1.353h-4.792a.2.2,0,0,1-.2-.2.2.2,0,0,1,.2-.2h4.792a.2.2,0,0,1,.2.2A.2.2,0,0,1,293.673,417.109Z" transform="translate(-209.394 -327.092)" fill="#fff" fillRule="evenodd"/>
      <path id="Path_314" data-name="Path 314" d="M281.009,206.57H279.93a.2.2,0,0,1-.2-.2v-.661c-.1-.041-.2-.081-.3-.122l-.478.468a.171.171,0,0,1-.142.061.2.2,0,0,1-.142-.061l-.763-.763a.217.217,0,0,1,0-.285l.478-.468a1.815,1.815,0,0,1-.122-.3h-.672a.2.2,0,0,1-.2-.2v-1.078a.2.2,0,0,1,.2-.2h.672a1.813,1.813,0,0,1,.122-.3l-.478-.468a.217.217,0,0,1,0-.285l.763-.763a.2.2,0,0,1,.285,0l.478.468c.092-.041.193-.081.3-.122v-.661a.2.2,0,0,1,.2-.2h1.078a.2.2,0,0,1,.2.2v.661c.092.041.193.081.285.122l.478-.468a.2.2,0,0,1,.285,0l.763.763a.2.2,0,0,1,0,.285l-.478.468a1.812,1.812,0,0,1,.122.3h.672a.2.2,0,0,1,.2.2v1.078a.2.2,0,0,1-.2.2h-.672a1.812,1.812,0,0,1-.122.3l.478.468a.2.2,0,0,1,0,.285l-.763.763a.2.2,0,0,1-.285,0l-.478-.468c-.092.041-.193.081-.3.122v.661a.19.19,0,0,1-.193.2Zm-.875-.407h.672v-.61a.221.221,0,0,1,.142-.2,2.035,2.035,0,0,0,.488-.193.186.186,0,0,1,.244.03l.437.437.468-.478-.437-.437a.214.214,0,0,1-.03-.244,1.784,1.784,0,0,0,.2-.478.2.2,0,0,1,.193-.153h.621v-.672h-.621a.2.2,0,0,1-.193-.153,1.784,1.784,0,0,0-.2-.478.215.215,0,0,1,.03-.244l.437-.437-.468-.478-.437.437a.186.186,0,0,1-.244.03,2.036,2.036,0,0,0-.488-.193.221.221,0,0,1-.142-.2v-.61h-.672v.61a.217.217,0,0,1-.153.2,1.809,1.809,0,0,0-.478.193.2.2,0,0,1-.254-.03l-.437-.437-.468.478.437.437a.2.2,0,0,1,.03.244,2.179,2.179,0,0,0-.2.478.2.2,0,0,1-.193.153h-.621v.672h.621a.2.2,0,0,1,.193.153,2.179,2.179,0,0,0,.2.478.2.2,0,0,1-.03.244l-.437.437.468.478.437-.437a.2.2,0,0,1,.254-.03,1.809,1.809,0,0,0,.478.193.217.217,0,0,1,.153.2Z" transform="translate(-198.582 -119.981)" fill="#fff" fillRule="evenodd"/>
      <path id="Path_315" data-name="Path 315" d="M321.156,245.455a1.272,1.272,0,1,1,1.272-1.272A1.281,1.281,0,0,1,321.156,245.455Zm0-2.136a.865.865,0,1,0,0,1.729.865.865,0,0,0,0-1.729Z" transform="translate(-239.268 -160.667)" fill="#fff" fillRule="evenodd"/>
      <g id="Group_349" data-name="Group 349" transform="translate(70.018 95.799)">
        <path id="Path_316" data-name="Path 316" d="M.094-.855l-.006,0H.082A.019.019,0,0,1,.068-.858.018.018,0,0,1,.063-.871.019.019,0,0,1,.068-.885.02.02,0,0,1,.082-.891H.088l.006,0V-.88l-.005,0H.083a.011.011,0,0,0-.008,0,.014.014,0,0,0,0,.009.014.014,0,0,0,0,.009.01.01,0,0,0,.008,0H.089l.005,0Z" transform="translate(-0.063 0.891)" fill="#fff"/>
      </g>
      <g id="Group_350" data-name="Group 350" transform="translate(70.056 95.808)">
        <path id="Path_317" data-name="Path 317" d="M.115-.664h0l-.005,0a.009.009,0,0,0,0,.007v.013H.094V-.671H.1v0l0,0H.115Z" transform="translate(-0.094 0.672)" fill="#fff"/>
      </g>
      <g id="Group_351" data-name="Group 351" transform="translate(70.079 95.808)">
        <path id="Path_318" data-name="Path 318" d="M.077-.657v0H.056a.011.011,0,0,0,0,0H.069l.007,0v.007l-.007,0H.063a.017.017,0,0,1-.012,0,.014.014,0,0,1,0-.011.014.014,0,0,1,0-.011.017.017,0,0,1,.012,0,.014.014,0,0,1,.011,0,.014.014,0,0,1,0,.011Zm-.009,0a0,0,0,0,0,0,0l0,0h0l0,0Z" transform="translate(-0.047 0.672)" fill="#fff"/>
      </g>
      <g id="Group_352" data-name="Group 352" transform="translate(70.114 95.808)">
        <path id="Path_319" data-name="Path 319" d="M.061-.656h0a0,0,0,0,0,0,0,0,0,0,0,0,0,0H.064a.006.006,0,0,0,0,0h0Zm.014,0v.016H.066v0l0,0H.057a.009.009,0,0,1-.007,0,.009.009,0,0,1,0-.007.007.007,0,0,1,0-.007.017.017,0,0,1,.011,0H.066a0,0,0,0,0,0,0H.05V-.671H.061a.016.016,0,0,1,.011,0,.012.012,0,0,1,0,.009Z" transform="translate(-0.047 0.672)" fill="#fff"/>
      </g>
      <g id="Group_353" data-name="Group 353" transform="translate(70.147 95.801)">
        <path id="Path_320" data-name="Path 320" d="M.029-.844v.008H.038v.007H.029v.011s0,0,0,0H.037v.007H.03l-.007,0a.013.013,0,0,1,0-.008V-.829h0V-.836h0V-.844Z" transform="translate(-0.016 0.844)" fill="#fff"/>
      </g>
      <g id="Group_354" data-name="Group 354" transform="translate(70.173 95.808)">
        <path id="Path_321" data-name="Path 321" d="M.077-.657v0H.056a.011.011,0,0,0,0,0H.069l.007,0v.007l-.007,0H.063a.017.017,0,0,1-.012,0,.014.014,0,0,1,0-.011.014.014,0,0,1,0-.011.017.017,0,0,1,.012,0,.014.014,0,0,1,.011,0,.014.014,0,0,1,0,.011Zm-.009,0a0,0,0,0,0,0,0l0,0h0l0,0Z" transform="translate(-0.047 0.672)" fill="#fff"/>
      </g>
      <g id="Group_355" data-name="Group 355" transform="translate(70.207 95.798)">
        <path id="Path_322" data-name="Path 322" d="M.068-.907V-.922H.077v.039H.068v0l0,0H.059a.01.01,0,0,1-.009,0,.015.015,0,0,1,0-.011.016.016,0,0,1,0-.011.01.01,0,0,1,.009,0H.064ZM.062-.889l0,0a.011.011,0,0,0,0-.006.011.011,0,0,0,0-.006l0,0,0,0a.01.01,0,0,0,0,.006.01.01,0,0,0,0,.006Z" transform="translate(-0.047 0.922)" fill="#fff"/>
      </g>
      <g id="Group_356" data-name="Group 356" transform="translate(70.263 95.798)">
        <path id="Path_323" data-name="Path 323" d="M.109-.889l0,0a.008.008,0,0,0,0-.006.008.008,0,0,0,0-.006l0,0,0,0A.01.01,0,0,0,.1-.9a.01.01,0,0,0,0,.006ZM.1-.907l0,0H.112a.011.011,0,0,1,.009,0,.017.017,0,0,1,0,.011.016.016,0,0,1,0,.011.011.011,0,0,1-.009,0H.107l0,0v0H.094V-.922H.1Z" transform="translate(-0.094 0.922)" fill="#fff"/>
      </g>
      <g id="Group_357" data-name="Group 357" transform="translate(70.296 95.809)">
        <path id="Path_324" data-name="Path 324" d="M.016-.656H.024l.008.019L.038-.656H.047l-.012.03a.018.018,0,0,1,0,.007l-.006,0h0V-.623H.026l0,0h0Z" transform="translate(-0.016 0.656)" fill="#fff"/>
      </g>
      <g id="Group_358" data-name="Group 358" transform="translate(70.346 95.8)">
        <path id="Path_325" data-name="Path 325" d="M.027-.845H.012l0,.007H0L.014-.875H.025l.014.037H.03ZM.015-.852h.01l0-.015Z" transform="translate(0 0.875)" fill="#fff"/>
      </g>
      <g id="Group_359" data-name="Group 359" transform="translate(70.388 95.808)">
        <path id="Path_326" data-name="Path 326" d="M.086-.671v.007H.072v0H.076l.009,0a.008.008,0,0,1,0,.007.008.008,0,0,1,0,.007l-.01,0H.063V-.651l.005,0H.078v0H.073l-.009,0a.008.008,0,0,1,0-.006.008.008,0,0,1,0-.007l.01,0H.086Z" transform="translate(-0.063 0.672)" fill="#fff"/>
      </g>
      <g id="Group_360" data-name="Group 360" transform="translate(70.419 95.808)">
        <path id="Path_327" data-name="Path 327" d="M.086-.671v.007H.072v0H.076l.009,0a.008.008,0,0,1,0,.007.008.008,0,0,1,0,.007l-.01,0H.063V-.651l.005,0H.078v0H.073l-.009,0a.008.008,0,0,1,0-.006.008.008,0,0,1,0-.007l.01,0H.086Z" transform="translate(-0.063 0.672)" fill="#fff"/>
      </g>
      <g id="Group_361" data-name="Group 361" transform="translate(70.45 95.798)">
        <path id="Path_328" data-name="Path 328" d="M.094-.911H.1v.028H.094Zm0-.011H.1v.007H.094Z" transform="translate(-0.094 0.922)" fill="#fff"/>
      </g>
      <g id="Group_362" data-name="Group 362" transform="translate(70.466 95.808)">
        <path id="Path_329" data-name="Path 329" d="M.061-.656h0a0,0,0,0,0,0,0,0,0,0,0,0,0,0H.064a.006.006,0,0,0,0,0h0Zm.014,0v.016H.066v0l0,0H.057a.009.009,0,0,1-.007,0,.009.009,0,0,1,0-.007.007.007,0,0,1,0-.007.017.017,0,0,1,.011,0H.066a0,0,0,0,0,0,0H.05V-.671H.061a.016.016,0,0,1,.011,0,.012.012,0,0,1,0,.009Z" transform="translate(-0.047 0.672)" fill="#fff"/>
      </g>
      <g id="Group_363" data-name="Group 363" transform="translate(70.52 95.8)">
        <path id="Path_330" data-name="Path 330" d="M.125-.86h0a0,0,0,0,0,0,0,0,0,0,0,0,0,0H.119V-.86Zm0,.016h0a0,0,0,0,0,0,0,0,0,0,0,0,0,0H.119v.01ZM.134-.858l0,0a.01.01,0,0,1,0,.006.009.009,0,0,1,0,.008.017.017,0,0,1-.011,0H.109V-.875H.124a.018.018,0,0,1,.011,0,.007.007,0,0,1,0,.007.008.008,0,0,1,0,0l0,0Z" transform="translate(-0.109 0.875)" fill="#fff"/>
      </g>
      <g id="Group_364" data-name="Group 364" transform="translate(70.557 95.808)">
        <path id="Path_331" data-name="Path 331" d="M.077-.657v0H.056a.011.011,0,0,0,0,0H.069l.007,0v.007l-.007,0H.063a.017.017,0,0,1-.012,0,.014.014,0,0,1,0-.011.014.014,0,0,1,0-.011.017.017,0,0,1,.012,0,.014.014,0,0,1,.011,0,.014.014,0,0,1,0,.011Zm-.009,0a0,0,0,0,0,0,0l0,0h0l0,0Z" transform="translate(-0.047 0.672)" fill="#fff"/>
      </g>
      <g id="Group_365" data-name="Group 365" transform="translate(70.593 95.808)">
        <path id="Path_332" data-name="Path 332" d="M.122-.661v.017H.113v-.02h0a.006.006,0,0,0,0,0,.009.009,0,0,0,0,.005v.014H.094V-.671H.1v0l0,0H.112a.009.009,0,0,1,.007,0,.011.011,0,0,1,0,.008Z" transform="translate(-0.094 0.672)" fill="#fff"/>
      </g>
      <g id="Group_366" data-name="Group 366" transform="translate(70.629 95.798)">
        <path id="Path_333" data-name="Path 333" d="M.094-.922H.1V-.9l.01-.01H.124L.11-.9l.015.015H.114L.1-.895v.012H.094Z" transform="translate(-0.094 0.922)" fill="#fff"/>
      </g>
      <g id="Group_367" data-name="Group 367" transform="translate(70.661 95.808)">
        <path id="Path_334" data-name="Path 334" d="M.077-.657v0H.056a.011.011,0,0,0,0,0H.069l.007,0v.007l-.007,0H.063a.017.017,0,0,1-.012,0,.014.014,0,0,1,0-.011.014.014,0,0,1,0-.011.017.017,0,0,1,.012,0,.014.014,0,0,1,.011,0,.014.014,0,0,1,0,.011Zm-.009,0a0,0,0,0,0,0,0l0,0h0l0,0Z" transform="translate(-0.047 0.672)" fill="#fff"/>
      </g>
      <g id="Group_368" data-name="Group 368" transform="translate(70.698 95.808)">
        <path id="Path_335" data-name="Path 335" d="M.115-.664h0l-.005,0a.009.009,0,0,0,0,.007v.013H.094V-.671H.1v0l0,0H.115Z" transform="translate(-0.094 0.672)" fill="#fff"/>
      </g>
      <g id="Group_369" data-name="Group 369" transform="translate(70.723 95.808)">
        <path id="Path_336" data-name="Path 336" d="M.115-.664h0l-.005,0a.009.009,0,0,0,0,.007v.013H.094V-.671H.1v0l0,0H.115Z" transform="translate(-0.094 0.672)" fill="#fff"/>
      </g>
      <g id="Group_370" data-name="Group 370" transform="translate(70.746 95.808)">
        <path id="Path_337" data-name="Path 337" d="M.063-.665l-.005,0a.01.01,0,0,0,0,.006.01.01,0,0,0,0,.006l.005,0,0,0a.008.008,0,0,0,0-.006.008.008,0,0,0,0-.006Zm0-.007a.014.014,0,0,1,.011,0,.014.014,0,0,1,0,.011.014.014,0,0,1,0,.011.014.014,0,0,1-.011,0,.017.017,0,0,1-.012,0,.014.014,0,0,1,0-.011.014.014,0,0,1,0-.011A.017.017,0,0,1,.063-.672Z" transform="translate(-0.047 0.672)" fill="#fff"/>
      </g>
      <g id="Group_371" data-name="Group 371" transform="translate(70.783 95.809)">
        <path id="Path_338" data-name="Path 338" d="M.094-.639V-.656H.1v0a.041.041,0,0,1,0,.006v.011h0l0,0a.009.009,0,0,0,0-.006V-.656H.122v.028H.113v0l0,0h0A.009.009,0,0,1,.1-.63a.013.013,0,0,1,0-.009Z" transform="translate(-0.094 0.656)" fill="#fff"/>
      </g>
      <g id="Group_372" data-name="Group 372" transform="translate(70.819 95.808)">
        <path id="Path_339" data-name="Path 339" d="M.12-.667l0,0H.129a.008.008,0,0,1,.007,0,.011.011,0,0,1,0,.008v.017H.13V-.658h0a.007.007,0,0,0,0,0h0l0,0a.01.01,0,0,0,0,.006v.014H.112V-.658a.021.021,0,0,0,0-.006h0l0,0a.01.01,0,0,0,0,.006v.014H.094V-.671H.1v0l0,0h.01a.007.007,0,0,1,0,0Z" transform="translate(-0.094 0.672)" fill="#fff"/>
      </g>
      <g id="Group_373" data-name="Group 373" transform="translate(70.016 95.849)">
        <path id="Path_340" data-name="Path 340" d="M.037-.922v.006H.03a0,0,0,0,0,0,0v0H.037V-.9H.03v.021H.02V-.9h0V-.911h0v0a.008.008,0,0,1,0-.007.011.011,0,0,1,.008,0Z" transform="translate(-0.016 0.922)" fill="#fff"/>
      </g>
      <g id="Group_374" data-name="Group 374" transform="translate(70.041 95.859)">
        <path id="Path_341" data-name="Path 341" d="M.115-.664h0l-.005,0a.009.009,0,0,0,0,.007v.013H.094V-.671H.1v0l0,0H.115Z" transform="translate(-0.094 0.672)" fill="#fff"/>
      </g>
      <g id="Group_375" data-name="Group 375" transform="translate(70.064 95.859)">
        <path id="Path_342" data-name="Path 342" d="M.063-.665l-.005,0a.01.01,0,0,0,0,.006.01.01,0,0,0,0,.006l.005,0,0,0a.008.008,0,0,0,0-.006.008.008,0,0,0,0-.006Zm0-.007a.014.014,0,0,1,.011,0,.014.014,0,0,1,0,.011.014.014,0,0,1,0,.011.014.014,0,0,1-.011,0,.017.017,0,0,1-.012,0,.014.014,0,0,1,0-.011.014.014,0,0,1,0-.011A.017.017,0,0,1,.063-.672Z" transform="translate(-0.047 0.672)" fill="#fff"/>
      </g>
      <g id="Group_376" data-name="Group 376" transform="translate(70.101 95.859)">
        <path id="Path_343" data-name="Path 343" d="M.12-.667l0,0H.129a.008.008,0,0,1,.007,0,.011.011,0,0,1,0,.008v.017H.13V-.658h0a.007.007,0,0,0,0,0h0l0,0a.01.01,0,0,0,0,.006v.014H.112V-.658a.021.021,0,0,0,0-.006h0l0,0a.01.01,0,0,0,0,.006v.014H.094V-.671H.1v0l0,0h.01a.007.007,0,0,1,0,0Z" transform="translate(-0.094 0.672)" fill="#fff"/>
      </g>
      <g id="Group_377" data-name="Group 377" transform="translate(70.168 95.852)">
        <path id="Path_344" data-name="Path 344" d="M.029-.844v.008H.038v.007H.029v.011s0,0,0,0H.037v.007H.03l-.007,0a.013.013,0,0,1,0-.008V-.829h0V-.836h0V-.844Z" transform="translate(-0.016 0.844)" fill="#fff"/>
      </g>
      <g id="Group_378" data-name="Group 378" transform="translate(70.196 95.849)">
        <path id="Path_345" data-name="Path 345" d="M.122-.9v.017H.113V-.9h0a.006.006,0,0,0,0,0A.009.009,0,0,0,.1-.9v.014H.094V-.922H.1v.015l0,0H.112a.009.009,0,0,1,.007,0,.011.011,0,0,1,0,.008Z" transform="translate(-0.094 0.922)" fill="#fff"/>
      </g>
      <g id="Group_379" data-name="Group 379" transform="translate(70.23 95.859)">
        <path id="Path_346" data-name="Path 346" d="M.077-.657v0H.056a.011.011,0,0,0,0,0H.069l.007,0v.007l-.007,0H.063a.017.017,0,0,1-.012,0,.014.014,0,0,1,0-.011.014.014,0,0,1,0-.011.017.017,0,0,1,.012,0,.014.014,0,0,1,.011,0,.014.014,0,0,1,0,.011Zm-.009,0a0,0,0,0,0,0,0l0,0h0l0,0Z" transform="translate(-0.047 0.672)" fill="#fff"/>
      </g>
      <g id="Group_380" data-name="Group 380" transform="translate(70.285 95.851)">
        <path id="Path_347" data-name="Path 347" d="M.109-.875H.12L.134-.85V-.875H.142v.037H.132L.119-.864v.026H.109Z" transform="translate(-0.109 0.875)" fill="#fff"/>
      </g>
      <g id="Group_381" data-name="Group 381" transform="translate(70.325 95.859)">
        <path id="Path_348" data-name="Path 348" d="M.063-.665l-.005,0a.01.01,0,0,0,0,.006.01.01,0,0,0,0,.006l.005,0,0,0a.008.008,0,0,0,0-.006.008.008,0,0,0,0-.006Zm0-.007a.014.014,0,0,1,.011,0,.014.014,0,0,1,0,.011.014.014,0,0,1,0,.011.014.014,0,0,1-.011,0,.017.017,0,0,1-.012,0,.014.014,0,0,1,0-.011.014.014,0,0,1,0-.011A.017.017,0,0,1,.063-.672Z" transform="translate(-0.047 0.672)" fill="#fff"/>
      </g>
      <g id="Group_382" data-name="Group 382" transform="translate(70.362 95.86)">
        <path id="Path_349" data-name="Path 349" d="M.094-.639V-.656H.1v0a.041.041,0,0,1,0,.006v.011h0l0,0a.009.009,0,0,0,0-.006V-.656H.122v.028H.113v0l0,0h0A.009.009,0,0,1,.1-.63a.013.013,0,0,1,0-.009Z" transform="translate(-0.094 0.656)" fill="#fff"/>
      </g>
      <g id="Group_383" data-name="Group 383" transform="translate(70.398 95.859)">
        <path id="Path_350" data-name="Path 350" d="M.122-.661v.017H.113v-.02h0a.006.006,0,0,0,0,0,.009.009,0,0,0,0,.005v.014H.094V-.671H.1v0l0,0H.112a.009.009,0,0,1,.007,0,.011.011,0,0,1,0,.008Z" transform="translate(-0.094 0.672)" fill="#fff"/>
      </g>
      <g id="Group_384" data-name="Group 384" transform="translate(70.453 95.851)">
        <path id="Path_351" data-name="Path 351" d="M.109-.875H.125a.015.015,0,0,1,.011,0,.01.01,0,0,1,0,.009.011.011,0,0,1,0,.009.014.014,0,0,1-.011,0H.119v.013H.109Zm.01.007v.011H.129a.005.005,0,0,0,0,0,.006.006,0,0,0,0,0H.119Z" transform="translate(-0.109 0.875)" fill="#fff"/>
      </g>
      <g id="Group_385" data-name="Group 385" transform="translate(70.489 95.859)">
        <path id="Path_352" data-name="Path 352" d="M.115-.664h0l-.005,0a.009.009,0,0,0,0,.007v.013H.094V-.671H.1v0l0,0H.115Z" transform="translate(-0.094 0.672)" fill="#fff"/>
      </g>
      <g id="Group_386" data-name="Group 386" transform="translate(70.513 95.859)">
        <path id="Path_353" data-name="Path 353" d="M.063-.665l-.005,0a.01.01,0,0,0,0,.006.01.01,0,0,0,0,.006l.005,0,0,0a.008.008,0,0,0,0-.006.008.008,0,0,0,0-.006Zm0-.007a.014.014,0,0,1,.011,0,.014.014,0,0,1,0,.011.014.014,0,0,1,0,.011.014.014,0,0,1-.011,0,.017.017,0,0,1-.012,0,.014.014,0,0,1,0-.011.014.014,0,0,1,0-.011A.017.017,0,0,1,.063-.672Z" transform="translate(-0.047 0.672)" fill="#fff"/>
      </g>
      <g id="Group_387" data-name="Group 387" transform="translate(70.544 95.849)">
        <path id="Path_354" data-name="Path 354" d="M-.041-.911h.009v.027a.012.012,0,0,1,0,.009.01.01,0,0,1-.008,0h0V-.877h.005a.015.015,0,0,0,0,0Zm0-.011h.009v.007H-.041Z" transform="translate(0.047 0.922)" fill="#fff"/>
      </g>
      <g id="Group_388" data-name="Group 388" transform="translate(70.565 95.859)">
        <path id="Path_355" data-name="Path 355" d="M.077-.657v0H.056a.011.011,0,0,0,0,0H.069l.007,0v.007l-.007,0H.063a.017.017,0,0,1-.012,0,.014.014,0,0,1,0-.011.014.014,0,0,1,0-.011.017.017,0,0,1,.012,0,.014.014,0,0,1,.011,0,.014.014,0,0,1,0,.011Zm-.009,0a0,0,0,0,0,0,0l0,0h0l0,0Z" transform="translate(-0.047 0.672)" fill="#fff"/>
      </g>
      <g id="Group_389" data-name="Group 389" transform="translate(70.599 95.859)">
        <path id="Path_356" data-name="Path 356" d="M.071-.671v.007H.064l-.006,0a.008.008,0,0,0,0,.006.008.008,0,0,0,0,.006l.006,0h0l0,0v.007H.063a.018.018,0,0,1-.013,0,.014.014,0,0,1,0-.011.014.014,0,0,1,0-.011.018.018,0,0,1,.013,0H.071Z" transform="translate(-0.047 0.672)" fill="#fff"/>
      </g>
      <g id="Group_390" data-name="Group 390" transform="translate(70.628 95.852)">
        <path id="Path_357" data-name="Path 357" d="M.029-.844v.008H.038v.007H.029v.011s0,0,0,0H.037v.007H.03l-.007,0a.013.013,0,0,1,0-.008V-.829h0V-.836h0V-.844Z" transform="translate(-0.016 0.844)" fill="#fff"/>
      </g>
    </g>
  </g>
</svg>