<svg width="326" height="250" viewBox="0 0 326 250" fill="none" xmlns="http://www.w3.org/2000/svg">
<path d="M325.618 218.826H0V218.993H325.618V218.826Z" fill="#EBEBEB"/>
<path d="M292.991 229.572H258.43V229.739H292.991V229.572Z" fill="#EBEBEB"/>
<path d="M215.702 227.481H177.501V227.649H215.702V227.481Z" fill="#EBEBEB"/>
<path d="M260.097 226.514H247.6V226.681H260.097V226.514Z" fill="#EBEBEB"/>
<path d="M93.5566 224.498H65.4297V224.665H93.5566V224.498Z" fill="#EBEBEB"/>
<path d="M61.8021 224.498H51.7471V224.665H61.8021V224.498Z" fill="#EBEBEB"/>
<path d="M120.915 227.318H85.6182V227.485H120.915V227.318Z" fill="#EBEBEB"/>
<path d="M154.349 189.019H28.5955C26.5441 189.019 24.877 187.308 24.877 185.203V3.8158C24.877 1.71076 26.5441 0 28.5955 0H154.349C156.4 0 158.068 1.71076 158.068 3.8158V185.203C158.068 187.308 156.4 189.019 154.349 189.019ZM28.5955 0.167067C26.6353 0.167067 25.0398 1.80432 25.0398 3.8158V185.203C25.0398 187.215 26.6353 188.852 28.5955 188.852H154.349C156.309 188.852 157.905 187.215 157.905 185.203V3.8158C157.905 1.80432 156.309 0.167067 154.349 0.167067H28.5955Z" fill="#EBEBEB"/>
<path d="M295.211 189.019H169.458C167.406 189.019 165.739 187.308 165.739 185.203V3.8158C165.739 1.71076 167.406 0 169.458 0H295.211C297.263 0 298.93 1.71076 298.93 3.8158V185.203C298.93 187.308 297.263 189.019 295.211 189.019ZM169.458 0.167067C167.498 0.167067 165.902 1.80432 165.902 3.8158V185.203C165.902 187.215 167.498 188.852 169.458 188.852H295.211C297.172 188.852 298.767 187.215 298.767 185.203V3.8158C298.767 1.80432 297.172 0.167067 295.211 0.167067H169.458Z" fill="#EBEBEB"/>
<path d="M106.314 18.7236H40.8843V118.015H106.314V18.7236Z" fill="#F0F0F0"/>
<path d="M106.321 118.015H107.447L107.447 18.7237H106.321L106.321 118.015Z" fill="#E0E0E0"/>
<path d="M100.537 22.9746H46.6606V113.759H100.537V22.9746Z" fill="#FAFAFA"/>
<path d="M102.166 51.2754H44.7983V52.2511H102.166V51.2754Z" fill="#F0F0F0"/>
<path d="M102.166 58.1631H44.7983V59.1388H102.166V58.1631Z" fill="#F0F0F0"/>
<path d="M102.166 65.0566H44.7983V66.0323H102.166V65.0566Z" fill="#F0F0F0"/>
<path d="M102.166 71.9443H44.7983V72.92H102.166V71.9443Z" fill="#F0F0F0"/>
<path d="M102.166 78.8281H44.7983V79.8038H102.166V78.8281Z" fill="#F0F0F0"/>
<path d="M102.166 85.7207H44.7983V86.6964H102.166V85.7207Z" fill="#F0F0F0"/>
<path d="M102.166 92.6084H44.7983V93.5841H102.166V92.6084Z" fill="#F0F0F0"/>
<path d="M102.166 99.4971H44.7983V100.473H102.166V99.4971Z" fill="#F0F0F0"/>
<path d="M102.166 106.385H44.7983V107.354H102.166V106.385Z" fill="#F0F0F0"/>
<path d="M177.071 139.119H43.0532V143.162H177.071V139.119Z" fill="#F5F5F5"/>
<path d="M177.071 143.154H205.146V139.111H177.071V143.154Z" fill="#E0E0E0"/>
<path d="M191.105 143.159H189.933L176.354 218.82H177.533L191.105 143.159Z" fill="#E0E0E0"/>
<path d="M191.105 143.159H192.284L205.862 218.82H204.683L191.105 143.159Z" fill="#E0E0E0"/>
<path d="M57.0939 143.159H55.9152L42.3369 218.82H43.5156L57.0939 143.159Z" fill="#E0E0E0"/>
<path d="M57.0938 143.159H58.266L71.8442 218.82H70.672L57.0938 143.159Z" fill="#E0E0E0"/>
<path d="M111.615 191.26H97.7632V218.819H111.615V191.26Z" fill="#E6E6E6"/>
<path d="M69.0372 218.826H97.7632V191.267H69.0372V218.826Z" fill="#F5F5F5"/>
<path d="M77.3534 202.936H69.0371V208.569H77.3534V202.936Z" fill="#F0F0F0"/>
<path d="M77.3534 210.128H69.0371V215.761H77.3534V210.128Z" fill="#F0F0F0"/>
<path d="M112.227 189.16H97.978V191.259H112.227V189.16Z" fill="#E0E0E0"/>
<path d="M68.4315 191.26H97.978V189.161H68.4315V191.26Z" fill="#F0F0F0"/>
<path d="M170.291 177.965H149.758V218.816H170.291V177.965Z" fill="#E6E6E6"/>
<path d="M107.18 218.826H149.758V177.975H107.18V218.826Z" fill="#F5F5F5"/>
<path d="M146.293 182.646H131.582V195.951H146.293V182.646Z" fill="#F0F0F0"/>
<path d="M146.293 199.64H131.582V212.945H146.293V199.64Z" fill="#F0F0F0"/>
<path d="M171.203 174.851H150.077V177.965H171.203V174.851Z" fill="#E0E0E0"/>
<path d="M106.269 177.965H150.071V174.851H106.269V177.965Z" fill="#F0F0F0"/>
<path d="M225.718 218.826H273.154L275.29 151.184H227.854L225.718 218.826Z" fill="#E0E0E0"/>
<path d="M222.396 218.823H270.295L275.778 147.934H227.873L222.396 218.823Z" fill="#E6E6E6"/>
<path d="M219.812 218.823H269.807L275.29 147.934H225.288L219.812 218.823Z" fill="#F0F0F0"/>
<path d="M267.032 215.571L272.014 151.184H228.062L223.087 215.571H267.032Z" fill="white"/>
<path d="M256.873 178.231H239.023L240.436 159.914H258.293L256.873 178.231Z" fill="#F5F5F5"/>
<path d="M247.352 189.071L235.981 206.84H255.974L247.352 189.071Z" fill="#F5F5F5"/>
<path d="M194.96 18.7236H129.531V118.015H194.96V18.7236Z" fill="#F0F0F0"/>
<path d="M194.96 118.015H196.087V18.7237H194.96V118.015Z" fill="#E0E0E0"/>
<path d="M189.184 22.9746H135.307V113.759H189.184V22.9746Z" fill="#FAFAFA"/>
<path d="M190.812 51.2754H133.444V52.2511H190.812V51.2754Z" fill="#F0F0F0"/>
<path d="M190.812 58.1631H133.444V59.1388H190.812V58.1631Z" fill="#F0F0F0"/>
<path d="M190.812 65.0566H133.444V66.0323H190.812V65.0566Z" fill="#F0F0F0"/>
<path d="M190.812 71.9443H133.444V72.92H190.812V71.9443Z" fill="#F0F0F0"/>
<path d="M190.812 78.8281H133.444V79.8038H190.812V78.8281Z" fill="#F0F0F0"/>
<path d="M190.812 85.7207H133.444V86.6964H190.812V85.7207Z" fill="#F0F0F0"/>
<path d="M190.812 92.6084H133.444V93.5841H190.812V92.6084Z" fill="#F0F0F0"/>
<path d="M190.812 99.4971H133.444V100.473H190.812V99.4971Z" fill="#F0F0F0"/>
<path d="M190.812 106.385H133.444V107.354H190.812V106.385Z" fill="#F0F0F0"/>
<path d="M283.6 18.7236H218.17V118.015H283.6V18.7236Z" fill="#F0F0F0"/>
<path d="M283.606 118.015H284.733V18.7237H283.606V118.015Z" fill="#E0E0E0"/>
<path d="M277.823 22.9746H223.947V113.759H277.823V22.9746Z" fill="#FAFAFA"/>
<path d="M279.458 51.2754H222.091V52.2511H279.458V51.2754Z" fill="#F0F0F0"/>
<path d="M279.458 58.1631H222.091V59.1388H279.458V58.1631Z" fill="#F0F0F0"/>
<path d="M279.458 65.0566H222.091V66.0323H279.458V65.0566Z" fill="#F0F0F0"/>
<path d="M279.458 71.9443H222.091V72.92H279.458V71.9443Z" fill="#F0F0F0"/>
<path d="M279.458 78.8281H222.091V79.8038H279.458V78.8281Z" fill="#F0F0F0"/>
<path d="M279.458 85.7207H222.091V86.6964H279.458V85.7207Z" fill="#F0F0F0"/>
<path d="M279.458 92.6084H222.091V93.5841H279.458V92.6084Z" fill="#F0F0F0"/>
<path d="M279.458 99.4971H222.091V100.473H279.458V99.4971Z" fill="#F0F0F0"/>
<path d="M279.458 106.385H222.091V107.354H279.458V106.385Z" fill="#F0F0F0"/>
<path d="M162.809 249.002C232.545 249.002 289.077 245.615 289.077 241.437C289.077 237.259 232.545 233.872 162.809 233.872C93.0727 233.872 36.5405 237.259 36.5405 241.437C36.5405 245.615 93.0727 249.002 162.809 249.002Z" fill="#F5F5F5"/>
<path d="M81.2874 211.076L80.6361 211.036C83.5992 160.869 66.4327 117.92 66.2568 117.492L66.856 117.238C67.0318 117.666 84.2505 160.749 81.2808 211.076H81.2874Z" fill="#407BFF"/>
<path d="M81.9709 115.899C81.8342 115.392 81.5997 114.91 81.2546 114.516C80.0954 113.2 79.3399 114.77 74.8204 118.679C69.6496 123.15 66.3348 115.94 70.8739 115.164C75.413 114.389 80.0042 110.914 78.1286 107.733C75.7451 104.125 72.6387 100.737 69.4216 97.9699C67.3702 96.2859 66.7906 96.7002 64.114 100.202C61.431 103.704 58.7088 100.71 61.8608 98.7317C65.0062 96.7603 64.635 94.3412 62.6423 93.1784C62.6423 93.1784 62.6423 93.1718 62.6292 93.1718C60.0308 91.7483 57.6668 90.9732 55.902 91.0801C48.9793 91.5145 46.2572 97.9565 46.2246 105.668C46.2181 106.149 46.2246 106.631 46.2441 107.125C46.9605 109.738 51.5908 109.491 55.4266 107.413C59.868 105.007 58.533 111.435 53.0886 112.612C47.6769 113.781 48.0025 115.378 48.1002 117.931C48.6993 119.956 49.4352 121.894 50.2688 123.678C54.7949 133.328 62.753 136.676 71.7726 133.147C81.6388 129.285 83.7749 122.716 81.9644 115.893L81.9709 115.899ZM54.1306 105.548C53.7008 107.265 50.8223 107.446 50.9982 106.691C51.2391 105.675 54.5539 103.831 54.1306 105.548ZM62.2971 118.132C60.5583 122.228 53.3166 121.5 54.0655 119.675C55.0619 117.243 64.0359 114.035 62.2971 118.132ZM64.3224 103.917C65.0453 102.213 71.3949 100.035 70.1315 102.908C68.8746 105.775 63.7819 105.201 64.3224 103.917Z" fill="#407BFF"/>
<path d="M88.1773 210.028C82.1664 178.218 89.6231 149.282 89.6947 148.995L90.3264 149.169C90.2483 149.456 82.8372 178.245 88.8155 209.901L88.1773 210.028Z" fill="#407BFF"/>
<path d="M84.0743 144.802C83.0975 143.051 87.2849 144.04 87.845 145.083C88.2683 145.871 85.0512 146.56 84.0743 144.802ZM89.2647 143.927C88.633 142.998 91.036 143.332 91.4007 143.886C91.6807 144.307 89.9029 144.862 89.2647 143.927ZM93.8428 135.861C92.6836 134.831 96.0245 134.437 96.7018 135.059C97.2162 135.526 95.0151 136.896 93.8428 135.861ZM90.7755 155.675C89.0888 153.389 95.1648 154.004 96.1417 155.367C96.8711 156.39 92.4557 157.967 90.7755 155.675ZM97.7177 140.091C94.2271 140.866 91.8045 137.451 95.0216 137.672C98.2322 137.892 101.143 135.827 99.6909 133.629C99.6909 133.622 99.6909 133.622 99.6909 133.615V133.609C98.4927 132.125 96.8385 131.276 94.6634 131.43C91.2444 131.671 84.9991 137.545 81.8731 143.94C81.8731 143.953 81.8731 143.96 81.8601 143.973C80.9744 146.152 84.159 147.943 87.096 148.05C90.0526 148.15 88.5288 153.022 84.8753 150.623C81.2219 148.223 80.9484 147.348 80.1604 149.045C79.3854 153.71 81.1893 157.92 87.9947 159.577C94.0252 161.048 98.8118 158.234 100.909 151.698C101.508 149.841 101.912 147.756 102.107 145.657C102.205 144.555 102.107 143.425 101.723 142.39C101.189 140.939 100.127 139.563 97.7372 140.091H97.7177Z" fill="#407BFF"/>
<path d="M96.5391 199.321H71.2581C70.3008 199.321 69.5649 200.203 69.7212 201.179L75.7256 238.716C75.8493 239.484 76.5006 240.052 77.2625 240.052H90.5412C91.3032 240.052 91.9544 239.484 92.0781 238.716L98.0825 201.179C98.2388 200.21 97.5094 199.321 96.5456 199.321H96.5391Z" fill="#407BFF"/>
<path opacity="0.8" d="M96.5391 199.321H71.2581C70.3008 199.321 69.5649 200.203 69.7212 201.179L75.7256 238.716C75.8493 239.484 76.5006 240.052 77.2625 240.052H90.5412C91.3032 240.052 91.9544 239.484 92.0781 238.716L98.0825 201.179C98.2388 200.21 97.5094 199.321 96.5456 199.321H96.5391Z" fill="white"/>
</svg>
