<svg xmlns="http://www.w3.org/2000/svg" width="20.323" height="20.322" viewBox="0 0 20.323 20.322">
  <g id="noun-solution-2560296" transform="translate(-69.997 -0.005)">
    <path id="Path_171" data-name="Path 171" d="M71.372,8.155a1.372,1.372,0,0,0,.785-.248V19.49a.836.836,0,0,0,.836.836h2.992a.341.341,0,0,0,.06-.015.15.15,0,0,0,.02-.013.158.158,0,0,0,.029-.024l0,0s0-.01.008-.014a.159.159,0,0,0,.019-.035,9.77,9.77,0,0,0,.01-.05s0-.006,0-.009a.139.139,0,0,0,0-.024.15.15,0,0,0-.01-.035.167.167,0,0,0-.012-.017.154.154,0,0,0-.025-.031l0,0a1.064,1.064,0,1,1,1.355,0l-.005.007a.336.336,0,0,0-.036.049.156.156,0,0,0-.006.02.154.154,0,0,0-.008.04s0,0,0,.005a.14.14,0,0,0,0,.015.15.15,0,0,0,.008.039.138.138,0,0,0,.012.023.142.142,0,0,0,.012.022l.007.005a.148.148,0,0,0,.034.026.167.167,0,0,0,.018.012.153.153,0,0,0,.057.012H89.483a.836.836,0,0,0,.836-.836V16.185s0,0,0-.007a.161.161,0,0,0-.006-.03.156.156,0,0,0-.009-.029.161.161,0,0,0-.013-.019.153.153,0,0,0-.025-.03l0,0a.125.125,0,0,0-.014-.007.151.151,0,0,0-.036-.019.137.137,0,0,0-.023,0,.151.151,0,0,0-.028-.006l-.01,0a.142.142,0,0,0-.022,0,.152.152,0,0,0-.037.011.166.166,0,0,0-.016.011.155.155,0,0,0-.032.026l0,0a1.064,1.064,0,1,1,0-1.355l.007.006a.16.16,0,0,0,.019.016.15.15,0,0,0,.03.02l.017.005a.154.154,0,0,0,.042.009h0l.013,0a.152.152,0,0,0,.041-.008.143.143,0,0,0,.021-.011.146.146,0,0,0,.024-.013l.006-.007a.168.168,0,0,0,.017-.021.1.1,0,0,0,.026-.052.16.16,0,0,0,.007-.034s0,0,0-.007V3a.836.836,0,0,0-.836-.836H77.994a1.376,1.376,0,1,0-2.5-.949,1.388,1.388,0,0,0,.236.949h-2.74A.836.836,0,0,0,72.157,3V5.65a1.376,1.376,0,1,0-.785,2.506Zm9.981,8.229a.143.143,0,0,0-.025-.021.157.157,0,0,0-.023-.016.15.15,0,0,0-.027-.008.158.158,0,0,0-.032-.007h-.007a.167.167,0,0,0-.021,0,.153.153,0,0,0-.032.006.155.155,0,0,0-.029.015.152.152,0,0,0-.018.01l0,.006a.162.162,0,0,0-.021.025.149.149,0,0,0-.016.024.345.345,0,0,0-.014.059s0,0,0,.007v3.525h-3.2a1.377,1.377,0,1,0-2.258,0H72.993a.524.524,0,0,1-.523-.523V10.322h3.17a1.376,1.376,0,1,0,2.263,0h3.179v4.613s0,0,0,.007a.159.159,0,0,0,.007.032A.163.163,0,0,0,81.1,15a.149.149,0,0,0,.016.024.147.147,0,0,0,.021.025l0,.006a.137.137,0,0,0,.019.01.141.141,0,0,0,.028.015.15.15,0,0,0,.032.007.156.156,0,0,0,.02,0h.007a.156.156,0,0,0,.033-.007.091.091,0,0,0,.049-.024.152.152,0,0,0,.025-.02l.006,0a1.064,1.064,0,1,1,0,1.355l-.006,0Zm8.654-2.1a1.376,1.376,0,1,0,0,2.258v2.953a.524.524,0,0,1-.523.523H81.394V16.841a1.377,1.377,0,1,0,0-2.258V10.322h3.179a1.376,1.376,0,1,0,2.263,0h3.17ZM81.123,6.106a.148.148,0,0,0,.025.021.158.158,0,0,0,.023.016.147.147,0,0,0,.026.008.156.156,0,0,0,.033.007h.007a.154.154,0,0,0,.02,0,.144.144,0,0,0,.033-.007.152.152,0,0,0,.028-.015.172.172,0,0,0,.019-.01l0-.006a.148.148,0,0,0,.021-.025.092.092,0,0,0,.024-.05.159.159,0,0,0,.007-.032s0,0,0-.007V2.477h8.089A.524.524,0,0,1,90.006,3v7.009H86.481a.156.156,0,0,0-.1.277,1.064,1.064,0,1,1-1.355,0,.156.156,0,0,0-.1-.277H81.394V7.555s0,0,0-.007a.158.158,0,0,0-.007-.032.152.152,0,0,0-.008-.027.149.149,0,0,0-.016-.023.163.163,0,0,0-.021-.025l0-.006a.139.139,0,0,0-.019-.01.164.164,0,0,0-.028-.015.146.146,0,0,0-.032-.007.141.141,0,0,0-.02,0h-.007a.164.164,0,0,0-.032.006.149.149,0,0,0-.027.008.147.147,0,0,0-.023.015.154.154,0,0,0-.026.021l-.006,0a1.064,1.064,0,1,1,0-1.355l.006,0Zm-9.751-.391a1.06,1.06,0,0,1,.821.387l.006,0a.162.162,0,0,0,.026.021.148.148,0,0,0,.023.015.155.155,0,0,0,.027.008.145.145,0,0,0,.032.006h.007a.143.143,0,0,0,.021,0,.15.15,0,0,0,.032-.006.156.156,0,0,0,.029-.015.133.133,0,0,0,.018-.01l0-.006a.156.156,0,0,0,.021-.026.149.149,0,0,0,.015-.023.156.156,0,0,0,.008-.027.158.158,0,0,0,.007-.032s0,0,0-.007V3a.524.524,0,0,1,.523-.523h3.094a.156.156,0,0,0,.1-.277A1.063,1.063,0,0,1,76.724.326,1.063,1.063,0,0,1,77.54,2.2a.156.156,0,0,0,.1.277h3.442V5.65a1.377,1.377,0,1,0,0,2.258v2.1H77.548a.156.156,0,0,0-.1.277,1.064,1.064,0,1,1-1.355,0,.156.156,0,0,0-.1-.277H72.469V7.556s0,0,0-.007a.158.158,0,0,0-.007-.032.152.152,0,0,0-.008-.027.149.149,0,0,0-.016-.023.162.162,0,0,0-.021-.025l0-.006a.139.139,0,0,0-.019-.01.16.16,0,0,0-.028-.015.155.155,0,0,0-.032-.007.141.141,0,0,0-.02,0h-.007a.164.164,0,0,0-.032.006.144.144,0,0,0-.027.008.163.163,0,0,0-.023.015.151.151,0,0,0-.026.021l-.006,0a1.063,1.063,0,1,1-.821-1.741Z" transform="translate(0 0)"/>
  </g>
</svg>
