<svg xmlns="http://www.w3.org/2000/svg" width="20" height="20" viewBox="0 0 20 20">
  <g id="noun-student-1187654" transform="translate(-153.897 -27.983)">
    <path id="Path_114" data-name="Path 114" d="M163.861,27.984a1.071,1.071,0,0,0-.268.042l-9.138,2.667a.8.8,0,0,0-.489.362.532.532,0,0,0,0,.525.8.8,0,0,0,.489.362l4.676,1.361a2.927,2.927,0,0,0-.089.68,3.7,3.7,0,0,0,2.3,3.208c-3.159.808-5.444,3.073-5.444,5.757v3.493a.573.573,0,0,0,.16.389.873.873,0,0,0,.421.243,30.681,30.681,0,0,0,14.832,0,.873.873,0,0,0,.421-.243.573.573,0,0,0,.16-.389V42.949c0-2.683-2.285-4.948-5.444-5.757a3.7,3.7,0,0,0,2.3-3.208,2.926,2.926,0,0,0-.089-.68l4.676-1.361a.8.8,0,0,0,.489-.362.533.533,0,0,0,0-.525.8.8,0,0,0-.489-.362L164.2,28.025a1.079,1.079,0,0,0-.339-.042Zm.036,1.382,6.693,1.951L163.9,33.268,157.2,31.317Zm-3.132,4.417,2.829.826a1.086,1.086,0,0,0,.607,0l2.829-.826a1.822,1.822,0,0,1,.009.2c0,1.358-1.4,2.444-3.141,2.444s-3.141-1.087-3.141-2.444a1.822,1.822,0,0,1,.009-.2Zm3.132,4.424c3.507,0,6.282,2.113,6.282,4.743v2.979a27.687,27.687,0,0,1-12.565,0V42.949C157.614,40.319,160.389,38.206,163.9,38.206Z" fill="rgba(0,0,0,0.67)"/>
  </g>
</svg>
