<svg xmlns="http://www.w3.org/2000/svg" width="26" height="30" viewBox="0 0 26 30">
  <g id="Group_310" data-name="Group 310" transform="translate(-230 -2672)">
    <rect id="Rectangle_180" data-name="Rectangle 180" width="26" height="30" rx="5" transform="translate(230 2672)" fill="#fe76c2"/>
    <g id="noun-coaching-2805627" transform="translate(145.505 2659.584)">
      <path id="Path_287" data-name="Path 287" d="M87.823,27.916h5.052a.328.328,0,0,0,.326-.366l-.423-3.621,4.278-.638a.328.328,0,0,0,.28-.324V21.683a.328.328,0,0,0-.328-.328H92.052a2.3,2.3,0,1,0-3.2.006A1.454,1.454,0,0,0,87.5,22.844v4.744a.328.328,0,0,0,.328.328Zm.984-8.2a1.642,1.642,0,1,1,.481,1.159A1.641,1.641,0,0,1,88.807,19.715Zm-.656,3.129a.8.8,0,0,1,.755-.833H96.68v.673l-4.313.643h0a.328.328,0,0,0-.278.362l.416,3.57H88.151Z" fill="#fff"/>
      <path id="Path_288" data-name="Path 288" d="M358.493,266.363a2.3,2.3,0,1,0-3.2-.006h-4.957a.328.328,0,0,0-.328.328v1.284a.328.328,0,0,0,.28.324l4.28.638-.424,3.621a.328.328,0,0,0,.326.366h5.052a.328.328,0,0,0,.328-.328v-4.744a1.454,1.454,0,0,0-1.355-1.483Zm-3.237-1.646a1.642,1.642,0,1,1,.481,1.159A1.641,1.641,0,0,1,355.256,264.716Zm3.936,7.545h-4.355l.416-3.57h0a.328.328,0,0,0-.278-.361l-4.313-.645v-.673h7.775a.8.8,0,0,1,.755.833Z" transform="translate(-252.671 -235.816)" fill="#fff"/>
      <path id="Path_289" data-name="Path 289" d="M378.546,475.124a.328.328,0,0,0,.328-.328v-1.968a.328.328,0,0,0-.328-.328h-1.968a.328.328,0,0,0-.328.328V474.8a.328.328,0,0,0,.328.328Zm-1.64-1.968h1.312v1.312h-1.312Z" transform="translate(-278.268 -438.361)" fill="#fff"/>
      <path id="Path_291" data-name="Path 291" d="M203.874,439.8v-1.968a.328.328,0,0,0-.328-.328h-1.968a.328.328,0,0,0-.328.328V439.8a.328.328,0,0,0,.328.328h1.968a.328.328,0,0,0,.328-.328Zm-.656-.328h-1.312v-1.312h1.312Z" transform="translate(-108.476 -405.012)" fill="#fff"/>
      <path id="Path_293" data-name="Path 293" d="M87.828,335.124H89.8a.328.328,0,0,0,.328-.328v-1.968a.328.328,0,0,0-.328-.328H87.828a.328.328,0,0,0-.328.328V334.8a.328.328,0,0,0,.328.328Zm.328-1.968h1.312v1.312H88.156Z" transform="translate(1.635 -303.273)" fill="#fff"/>
      <path id="Path_294" data-name="Path 294" d="M256.046,230.124a.328.328,0,0,0,.328-.328v-1.968a.328.328,0,0,0-.328-.328h-1.968a.328.328,0,0,0-.328.328V229.8a.328.328,0,0,0,.328.328Zm-1.64-1.968h1.312v1.312h-1.312Z" transform="translate(-158.67 -202.526)" fill="#fff"/>
      <path id="Path_297" data-name="Path 297" d="M516.25,175.328V177.3a.328.328,0,0,0,.328.328h1.968a.328.328,0,0,0,.328-.328v-1.968a.328.328,0,0,0-.328-.328h-1.968A.328.328,0,0,0,516.25,175.328Zm.656.328h1.312v1.312h-1.312Z" transform="translate(-416.289 -151.338)" fill="#fff"/>
      <path id="Path_298" data-name="Path 298" d="M544.8,87.5h-1.968a.328.328,0,0,0-.328.328V89.8a.328.328,0,0,0,.328.328H544.8a.328.328,0,0,0,.328-.328V87.828a.328.328,0,0,0-.328-.328Zm-.328,1.968h-1.312V88.156h1.312Z" transform="translate(-437.947 -67.457)" fill="#fff"/>
      <path id="Path_299" data-name="Path 299" d="M455.328,20.124H457.3a.328.328,0,0,0,.328-.328V17.828a.328.328,0,0,0-.328-.328h-1.968a.328.328,0,0,0-.328.328V19.8a.328.328,0,0,0,.328.328Zm.328-1.968h1.312v1.312h-1.312Z" transform="translate(-353.727 -0.081)" fill="#fff"/>
    </g>
  </g>
</svg>
