<svg width="30" height="30" viewBox="0 0 30 30" fill="none" xmlns="http://www.w3.org/2000/svg">
<circle cx="15" cy="15" r="15" fill="#0396FF"/>
<path d="M24.1922 11.0675L21.8562 13.4035C21.3844 18.8738 16.7711 23.1254 11.25 23.1254C10.1156 23.1254 9.18045 22.9457 8.47029 22.591C7.89763 22.3043 7.66326 21.9972 7.60467 21.9097C7.55242 21.8314 7.51855 21.7422 7.5056 21.6489C7.49265 21.5557 7.50095 21.4607 7.52987 21.371C7.55879 21.2814 7.60759 21.1995 7.67263 21.1314C7.73767 21.0633 7.81725 21.0107 7.90545 20.9777C7.92576 20.9699 9.7992 20.2504 10.989 18.8808C10.3292 18.3383 9.75316 17.7012 9.27967 16.9902C8.31092 15.5519 7.22654 13.0535 7.56092 9.31988C7.57151 9.20125 7.61579 9.08811 7.68853 8.9938C7.76128 8.89948 7.85946 8.82791 7.97151 8.78753C8.08356 8.74714 8.20482 8.73961 8.32101 8.76583C8.43719 8.79205 8.54347 8.85092 8.62732 8.93551C8.65467 8.96285 11.2273 11.5214 14.3726 12.3511V11.8754C14.3714 11.3764 14.4701 10.8823 14.6627 10.4221C14.8554 9.96192 15.1382 9.54491 15.4945 9.19567C15.8405 8.85014 16.2522 8.57742 16.7054 8.39359C17.1585 8.20976 17.6438 8.11856 18.1328 8.12535C18.7887 8.13182 19.4318 8.30789 19.9995 8.63645C20.5672 8.96501 21.0403 9.43487 21.3726 10.0004H23.75C23.8737 10.0003 23.9946 10.0369 24.0975 10.1055C24.2003 10.1742 24.2805 10.2718 24.3279 10.3861C24.3752 10.5004 24.3876 10.6261 24.3634 10.7474C24.3393 10.8687 24.2797 10.9801 24.1922 11.0675Z" fill="white"/>
</svg>
