<svg xmlns="http://www.w3.org/2000/svg" width="36" height="36" viewBox="0 0 36 36">
  <g id="Ellipse_23" data-name="Ellipse 23" fill="none" stroke="#d6d6d6" strokeWidth="1">
    <circle cx="18" cy="18" r="18" stroke="none"/>
    <circle cx="18" cy="18" r="17.5" fill="none"/>
  </g>
  <path id="external-site-twitter-6717f73e3402edb200e17233edc6d9aa756d084c" d="M13.473,2.933a3.3,3.3,0,0,0-2.4-1.1A3.268,3.268,0,0,0,7.795,5.16a3.5,3.5,0,0,0,.085.771A9.322,9.322,0,0,1,1.114,2.3,3.509,3.509,0,0,0,2.13,6.854,3.2,3.2,0,0,1,.643,6.413c0,.014,0,.028,0,.043A3.408,3.408,0,0,0,3.276,9.815a3.175,3.175,0,0,1-1.482.049A3.318,3.318,0,0,0,4.86,12.239,6.445,6.445,0,0,1,0,13.633a9.034,9.034,0,0,0,5.032,1.534,9.381,9.381,0,0,0,9.34-9.538q0-.218-.01-.434A6.642,6.642,0,0,0,16,3.483a6.4,6.4,0,0,1-1.885.5,3.286,3.286,0,0,0,1.443-1.833A6.411,6.411,0,0,1,13.473,2.933Z" transform="translate(10 9.167)" fill="#e2e2e2" fillRule="evenodd"/>
</svg>

