<svg xmlns="http://www.w3.org/2000/svg" width="117.512" height="5.839" viewBox="0 0 117.512 5.839">
  <g id="Homepage" transform="translate(0 1.75)">
    <g id="beau" transform="translate(0 0)">
      <g id="Group">
        <path id="Path" d="M67.5-4.219c2.2,0,3.305,2.339,5.876,2.339s2.938-2.339,5.876-2.339S82.924-1.88,85.127-1.88" transform="translate(-14.619 4.219)" fill="none" stroke="#131b3b" strokeWidth="3.5" fillRule="evenodd"/>
        <path id="Path-Copy-2" d="M22.5-4.219c2.2,0,3.305,2.339,5.876,2.339s2.938-2.339,5.876-2.339S37.924-1.88,40.127-1.88" transform="translate(-4.873 4.219)" fill="none" stroke="#131b3b" strokeWidth="3.5" fillRule="evenodd"/>
        <path id="Path-Copy" d="M45,2.339C47.2,2.339,48.305,0,50.876,0s2.938,2.339,5.876,2.339S60.424,0,62.627,0" transform="translate(-9.746 0)" fill="none" stroke="#131b3b" strokeWidth="3.5" fillRule="evenodd"/>
        <path id="Path-Copy-3" d="M0,2.339C2.2,2.339,3.305,0,5.876,0s2.938,2.339,5.876,2.339S15.424,0,17.627,0" transform="translate(0 0)" fill="none" stroke="#131b3b" strokeWidth="3.5" fillRule="evenodd"/>
        <path id="Path-Copy-6" d="M112.5-4.219c2.2,0,3.305,2.339,5.876,2.339s2.938-2.339,5.876-2.339,3.673,2.339,5.876,2.339" transform="translate(-24.366 4.219)" fill="none" stroke="#131b3b" strokeWidth="3.5" fillRule="evenodd"/>
        <path id="Path-Copy-5" d="M135,2.339c2.2,0,3.305-2.339,5.876-2.339s2.938,2.339,5.876,2.339" transform="translate(-29.239 0)" fill="none" stroke="#131b3b" strokeWidth="3.5" fillRule="evenodd"/>
        <path id="Path-Copy-4" d="M90,2.339C92.2,2.339,93.305,0,95.876,0s2.938,2.339,5.876,2.339S105.424,0,107.627,0" transform="translate(-19.493 0)" fill="none" stroke="#131b3b" strokeWidth="3.5" fillRule="evenodd"/>
      </g>
    </g>
  </g>
</svg>
